# AST/ASF file generated using VICON BodyLanguage
# -----------------------------------------------
:version 1.10
:name VICON
:units
  mass 1.0
  length 0.45
  angle deg
:documentation
   .ast/.asf automatically generated from VICON data using
   VICON BodyBuilder and BodyLanguage model FoxedUp or BRILLIANT.MOD
:root
   order TX TY TZ RX RY RZ
   axis XYZ
   position 0 0 0  
   orientation 0 0 0 
:bonedata
  begin
     id 1 
     name lhipjoint
     direction 0.623529 -0.717805 0.309788 
     length 2.23224 
     axis 0 0 0  XYZ
  end
  begin
     id 2 
     name lfemur
     direction 0.34202 -0.939693 0  
     length 7.11402  
     axis 0 0 20  XYZ
    dof rx ry rz
    limits (-160.0 20.0)
           (-70.0 70.0)
           (-60.0 70.0)
  end
  begin
     id 3 
     name ltibia
     direction 0.34202 -0.939693 0   
     length 6.78496   
     axis 0 0 20   XYZ
    dof rx
    limits (-10.0 170.0)
  end
  begin
     id 4 
     name lfoot
     direction 0.125078 -0.343648 0.930732   
     length 1.84054   
     axis -90 7.62852e-016 20   XYZ
    dof rx rz
    limits (-45.0 90.0)
           (-70.0 20.0)
  end
  begin
     id 5 
     name ltoes
     direction 1.53565e-011 -4.21893e-011 1   
     length 0.916474   
     axis -90 7.62852e-016 20   XYZ
    dof rx
    limits (-90.0 20.0)
  end
  begin
     id 6 
     name rhipjoint
     direction -0.564688 -0.757748 0.327026   
     length 2.11457  
     axis 0 0 0  XYZ 
  end
  begin
     id 7 
     name rfemur
     direction -0.34202 -0.939693 0   
     length 7.14609   
     axis 0 0 -20   XYZ
    dof rx ry rz
    limits (-160.0 20.0)
           (-70.0 70.0)
           (-70.0 60.0)
  end
  begin
     id 8 
     name rtibia
     direction -0.34202 -0.939693 0   
     length 6.78101   
     axis 0 0 -20   XYZ
    dof rx
    limits (-10.0 170.0)
 end
 begin
     id 9 
     name rfoot
     direction -0.0992671 -0.272734 0.956955   
     length 1.96168  
     axis -90 -7.62852e-016 -20   XYZ
    dof rx rz
    limits (-45.0 90.0)
           (-20.0 70.0)
  end
  begin
     id 10 
     name rtoes
     direction -1.5356e-011 -4.21891e-011 1   
     length 0.982933   
     axis -90 -7.62852e-016 -20   XYZ
    dof rx
    limits (-90.0 20.0)
  end
  begin
     id 11 
     name lowerback
     direction -0.00596953 0.998668 0.0512524   
     length 1.87557   
     axis 0 0 0   XYZ
    dof rx ry rz
    limits (-20.0 45.0)
           (-30.0 30.0)
           (-30.0 30.0)
  end
  begin
     id 12 
     name upperback
     direction 0.00584879 0.999652 0.0257308   
     length 1.87883   
     axis 0 0 0   XYZ
    dof rx ry rz
    limits (-20.0 45.0)
           (-30.0 30.0)
           (-30.0 30.0)
  end
  begin
     id 13 
     name thorax
     direction 0.010104 0.999947 0.00178881   
     length 1.87779   
     axis 0 0 0   XYZ
    dof rx ry rz
    limits (-20.0 45.0)
           (-30.0 30.0)
           (-30.0 30.0)
  end
  begin
     id 14 
     name lowerneck
     direction 0.0120771 0.995934 -0.0892773   
     length 1.40897   
     axis 0 0 0   XYZ
    dof rx ry rz
    limits (-20.0 45.0)
           (-30.0 30.0)
           (-30.0 30.0)
  end
  begin
     id 15 
     name upperneck
     direction -0.030568 0.999465 -0.0116366   
     length 1.38661   
     axis 0 0 0   XYZ
    dof rx ry rz
    limits (-20.0 45.0)
           (-30.0 30.0)
           (-30.0 30.0)
  end
  begin
     id 16
     name head
     direction -0.0170715 0.999854 -0.00104426  
     length 1.47052  
     axis 0 0 0   XYZ
    dof rx ry rz
    limits (-20.0 45.0)
           (-30.0 30.0)
           (-30.0 30.0)
  end
  begin
     id 17 
     name lclavicle
     direction 0.977763 0.206143 0.038532  
     length 3.02424  
     axis 0 0 0   XYZ
    dof ry rz
    limits (-20.0 10.0)
           (0.0 20.0)
  end
  begin
     id 18 
     name lhumerus
     direction 1 -4.48965e-011 -2.62654e-027   
     length 4.68382   
     axis 180 -30 -90   XYZ
    dof rx ry rz
    limits (-60.0 90.0)
           (-90.0 90.0)
           (-90.0 90.0)
  end
  begin
     id 19
     name lradius
     direction 1 -4.48973e-011 -1.54954e-027   
     length 2.98124   
     axis 180 -30 -90   XYZ
    dof rx
    limits (-10.0 170.0)
  end
  begin
     id 20
     name lwrist
     direction 1 -4.48959e-011 7.20928e-028   
     length 1.49062   
     axis -5.52449e-016 90 90   XYZ
    dof ry
    limits (-180.0 0.0)
 end
  begin
     id 21 
     name lhand
     direction 1 -4.48971e-011 1.44186e-027   
     length 0.707595   
     axis -9.20027e-016 90 90   XYZ
    dof rx rz
    limits (-90.0 90.0)
           (-45.0 45.0)
  end
  begin
     id 22 
     name lfingers
     direction 1 -4.48985e-011 2.88371e-027   
     length 0.570481   
     axis -1.84005e-015 90 90   XYZ
    dof rx
    limits (0.0 90.0)
  end
  begin
     id 23
     name lthumb
     direction 0.707107 -6.34929e-011 0.707107   
     length 0.819101   
     axis -90 45 2.85299e-015   XYZ
    dof rx rz
    limits (-45.0 45.0)
           (-45.0 45.0)
  end
  begin
     id 24 
     name rclavicle
     direction -0.958661 0.284411 -0.00895327   
     length 3.11921  
     axis 0 0 0   XYZ 
    dof ry rz
    limits (-10.0 20.0)
           (-20.0 0.0)
  end
  begin
     id 25 
     name rhumerus
     direction -1 -4.48963e-011 -4.22193e-027  
     length 4.75876   
     axis 180 30 90   XYZ
    dof rx ry rz
    limits (-90.0 60.0)
           (-90.0 90.0)
           (-90.0 90.0)
  end
  begin
     id 26 
     name rradius
     direction -1 -4.48968e-011 -1.07616e-027   
     length 2.93293   
     axis 180 30 90   XYZ
    dof rx
    limits (-10.0 170.0)
  end
  begin
     id 27 
     name rwrist
     direction -1 -4.48965e-011 7.20928e-028   
     length 1.46647   
     axis -5.52449e-016 -90 -90   XYZ
    dof ry
    limits (-180.0 0.0)
  end
  begin
     id 28
     name rhand
     direction -1 -4.48971e-011 1.44186e-027   
     length 0.831748   
     axis -9.20027e-016 -90 -90   XYZ
    dof rx rz
    limits (-90.0 90.0)
           (-45.0 45.0)
  end
  begin
     id 29
     name rfingers
     direction -1 -4.48961e-011 2.88371e-027   
     length 0.670577   
     axis -1.84005e-015 -90 -90   XYZ
    dof rx
    limits (0.0 90.0)
  end
  begin
     id 30
     name rthumb
     direction -0.707107 -6.34929e-011 0.707107   
     length 0.962818   
     axis -90 -45 -2.85299e-015   XYZ
    dof rx rz
    limits (-45.0 45.0)
           (-45.0 45.0)
  end
:hierarchy
  begin
    root lhipjoint rhipjoint lowerback
    lhipjoint lfemur
    lfemur ltibia
    ltibia lfoot
    lfoot ltoes
    rhipjoint rfemur
    rfemur rtibia
    rtibia rfoot
    rfoot rtoes
    lowerback upperback
    upperback thorax
    thorax lowerneck lclavicle rclavicle
    lowerneck upperneck
    upperneck head
    lclavicle lhumerus
    lhumerus lradius
    lradius lwrist
    lwrist lhand lthumb
    lhand lfingers
    rclavicle rhumerus
    rhumerus rradius
    rradius rwrist
    rwrist rhand rthumb
    rhand rfingers
  end

#!OML:ASF E:\id_vita\Project 1\Capture day 1\Session 1\Female.ASF
:FULLY-SPECIFIED
:DEGREES
341
root -15.0343 13.6649 -1.78395 -134.725 -62.8876 198.829
lowerback 14.8067 2.72528 -9.88068
upperback 2.16658 1.8232 -0.518817
thorax -6.29563 1.04126 4.67032
lowerneck -9.42908 10.1304 -0.764042
upperneck -32.412 8.98559 -15.7384
head -7.78578 4.76288 -5.40617
rclavicle -5.96354e-014 -1.43125e-014
rhumerus 7.72642 23.9187 -101.291
rradius 60.3398
rwrist -15.2405
rhand -26.7929 -0.65488
rfingers 7.12502
rthumb -0.220111 -30.6345
lclavicle -5.96354e-014 -1.43125e-014
lhumerus 62.1936 29.8281 157.276
lradius 8.49689
lwrist -56.2899
lhand -3.45495 33.0838
lfingers 7.12502
lthumb 22.2773 61.8197
rfemur -110.539 -4.66704 45.7069
rtibia 72.3869
rfoot -14.7579 8.73399
rtoes -9.29656
lfemur -115.126 12.5016 -28.5374
ltibia 73.0998
lfoot -20.9951 7.81861
ltoes 3.71258
342
root -15.0276 13.7027 -1.75667 -134.481 -62.7627 198.853
lowerback 14.6554 2.68236 -9.85421
upperback 2.16773 1.78232 -0.614716
thorax -6.20074 1.01554 4.56392
lowerneck -9.45141 10.1992 -0.73485
upperneck -32.6913 9.05878 -15.673
head -7.87888 4.7823 -5.40655
rclavicle 1.59028e-014 4.65156e-014
rhumerus 7.75277 23.8915 -101.354
rradius 60.1528
rwrist -15.0966
rhand -27.1297 0.260914
rfingers 7.12502
rthumb -0.545323 -29.7181
lclavicle 1.59028e-014 4.65156e-014
lhumerus 61.3425 29.4386 155.751
lradius 8.6954
lwrist -55.0963
lhand -5.12634 31.6217
lfingers 7.12502
lthumb 20.672 60.5408
rfemur -110.499 -4.55004 46.1133
rtibia 71.5628
rfoot -15.0183 8.4607
rtoes -14.4094
lfemur -115.006 12.4177 -28.4011
ltibia 72.1984
lfoot -20.3861 7.85061
ltoes 4.16992
343
root -15.0205 13.7489 -1.72919 -134.308 -62.6332 198.951
lowerback 14.5678 2.66826 -9.86115
upperback 2.12852 1.77151 -0.638838
thorax -6.19247 1.01215 4.54526
lowerneck -9.56899 10.245 -0.884847
upperneck -32.733 9.15422 -15.5447
head -7.88826 4.82823 -5.33655
rclavicle 2.3059e-014 6.0033e-014
rhumerus 7.69516 23.844 -101.216
rradius 60.7509
rwrist -15.2277
rhand -26.4204 -1.17193
rfingers 7.12502
rthumb 0.13973 -31.1516
lclavicle 2.3059e-014 6.0033e-014
lhumerus 60.444 29.0843 154.356
lradius 9.02161
lwrist -53.7694
lhand -5.18835 31.2042
lfingers 7.12502
lthumb 20.6124 60.1297
rfemur -110.393 -4.54069 46.312
rtibia 70.7025
rfoot -14.7076 9.43306
rtoes -13.4859
lfemur -114.796 12.3334 -28.225
ltibia 71.3102
lfoot -20.3225 7.93964
ltoes 3.87449
344
root -15.0119 13.8103 -1.69752 -134.179 -62.483 199.02
lowerback 14.7635 2.73176 -9.85696
upperback 1.99779 1.82959 -0.628723
thorax -6.45113 1.05756 4.53489
lowerneck -9.4804 10.2199 -0.876392
upperneck -32.7603 9.07021 -15.7066
head -7.90703 4.80282 -5.39898
rclavicle -1.26427e-013 -1.10127e-013
rhumerus 7.42708 23.7148 -100.999
rradius 60.8785
rwrist -14.6408
rhand -26.6658 -1.20162
rfingers 7.12502
rthumb -0.0973311 -31.1813
lclavicle -1.26427e-013 -1.10127e-013
lhumerus 59.4641 28.6569 153.119
lradius 9.15681
lwrist -52.4858
lhand -4.92015 31.2294
lfingers 7.12502
lthumb 20.8701 60.1268
rfemur -110.188 -4.64329 46.6316
rtibia 69.7562
rfoot -14.2221 10.8253
rtoes -11.2825
lfemur -114.593 12.2368 -28.1507
ltibia 70.5724
lfoot -20.1387 7.92658
ltoes 4.51813
345
root -15.0045 13.8741 -1.6652 -134.215 -62.3778 199.263
lowerback 14.9122 2.76933 -9.72263
upperback 1.94795 1.87991 -0.643268
thorax -6.59037 1.08627 4.42853
lowerneck -9.39469 10.2015 -0.810241
upperneck -33.0027 8.97533 -15.7967
head -8.00471 4.75288 -5.4606
rclavicle 3.97569e-015 -1.98785e-015
rhumerus 7.32531 23.5603 -100.974
rradius 60.8428
rwrist -14.4198
rhand -26.9424 -0.665712
rfingers 7.12502
rthumb -0.364409 -30.6451
lclavicle 3.97569e-015 -1.98785e-015
lhumerus 58.6875 28.0105 151.899
lradius 9.11982
lwrist -51.3097
lhand -5.19226 31.2604
lfingers 7.12502
lthumb 20.6087 60.1863
rfemur -109.943 -4.83698 46.7635
rtibia 68.8147
rfoot -12.8722 12.8286
rtoes -3.97464
lfemur -114.421 12.1744 -28.1364
ltibia 69.9646
lfoot -19.7448 8.11812
ltoes 4.82954
346
root -15.0011 13.9235 -1.63771 -134.457 -62.3363 199.626
lowerback 15.0311 2.91629 -9.68477
upperback 1.97306 2.08265 -0.437005
thorax -6.66569 1.18896 4.58338
lowerneck -9.6841 10.0228 -1.29934
upperneck -32.793 8.76658 -15.6523
head -7.94764 4.67722 -5.30325
rclavicle 1.19271e-014 -5.52621e-014
rhumerus 7.35008 23.4706 -100.456
rradius 60.7629
rwrist -14.4576
rhand -27.2999 -0.0245346
rfingers 7.12502
rthumb -0.709764 -30.0031
lclavicle 1.19271e-014 -5.52621e-014
lhumerus 57.815 27.3725 151.005
lradius 9.25729
lwrist -50.0924
lhand -4.45328 31.3641
lfingers 7.12502
lthumb 21.3186 60.2114
rfemur -109.689 -4.95108 47.7342
rtibia 67.7811
rfoot -13.2583 13.4775
rtoes -8.63028
lfemur -114.145 12.1467 -28.0958
ltibia 69.5197
lfoot -19.5929 8.44658
ltoes 4.38113
347
root -14.9885 13.9829 -1.61217 -134.738 -62.0397 200.183
lowerback 14.9617 3.14384 -9.88315
upperback 1.91727 2.3706 -0.277578
thorax -6.74692 1.34294 4.80459
lowerneck -9.73942 9.87386 -1.64781
upperneck -32.6432 8.57811 -15.6007
head -7.93031 4.61718 -5.21681
rclavicle -4.77083e-015 8.34896e-015
rhumerus 7.28008 23.2988 -99.9965
rradius 60.7031
rwrist -14.1797
rhand -27.1913 0.0203715
rfingers 7.12502
rthumb -0.604859 -29.9585
lclavicle -4.77083e-015 8.34896e-015
lhumerus 56.7909 26.9765 149.934
lradius 9.58404
lwrist -48.8221
lhand -6.07993 30.9505
lfingers 7.12502
lthumb 19.7555 59.9666
rfemur -109.353 -4.82244 48.0827
rtibia 66.6688
rfoot -12.7775 14.619
rtoes -8.73938
lfemur -114.064 12.3573 -28.07
ltibia 69.0638
lfoot -19.5305 8.59857
ltoes 4.66009
348
root -14.979 14.0263 -1.5805 -134.517 -61.7924 200.276
lowerback 14.898 3.02419 -9.79798
upperback 1.85722 2.20862 -0.571733
thorax -6.73618 1.25913 4.47492
lowerneck -9.70211 10.0464 -1.06378
upperneck -32.8251 8.7791 -15.7156
head -7.93231 4.65786 -5.36249
rclavicle -7.95139e-016 -3.18055e-015
rhumerus 7.24977 23.1953 -100.527
rradius 60.6038
rwrist -13.5617
rhand -27.0703 0.119456
rfingers 7.12502
rthumb -0.487992 -29.8597
lclavicle -7.95139e-016 -3.18055e-015
lhumerus 56.2103 26.5952 148.14
lradius 9.72604
lwrist -47.6711
lhand -6.16738 30.3836
lfingers 7.12502
lthumb 19.6714 59.4083
rfemur -109.231 -4.76973 48.6802
rtibia 65.4509
rfoot -13.8265 14.614
rtoes -16.1637
lfemur -114.078 12.3206 -27.9994
ltibia 68.5387
lfoot -19.4061 8.78412
ltoes 4.71612
349
root -14.9751 14.061 -1.55368 -134.427 -61.6782 200.517
lowerback 14.8897 2.86758 -9.58253
upperback 1.78644 2.01671 -0.814006
thorax -6.7627 1.16044 4.13321
lowerneck -9.04505 10.1749 -0.711155
upperneck -33.7341 8.83873 -15.7098
head -8.33853 4.66573 -5.51605
rclavicle 3.97569e-014 5.40694e-014
rhumerus 7.34364 23.2862 -100.896
rradius 60.3449
rwrist -13.2659
rhand -27.4541 1.24298
rfingers 7.12502
rthumb -0.858663 -28.735
lclavicle 3.97569e-014 5.40694e-014
lhumerus 56.1686 25.7216 146.71
lradius 9.0915
lwrist -46.7196
lhand -5.71647 30.4342
lfingers 7.12502
lthumb 20.1049 59.4139
rfemur -109.227 -4.68854 50.2121
rtibia 64.133
rfoot -16.8994 13.1942
rtoes -27.7271
lfemur -114.04 12.2702 -27.7429
ltibia 67.8342
lfoot -19.0402 9.02625
ltoes 4.35642
350
root -14.9742 14.0983 -1.53025 -134.275 -61.5563 200.716
lowerback 14.8593 2.95306 -9.6075
upperback 1.65983 2.13846 -0.696575
thorax -6.90614 1.23525 4.24511
lowerneck -9.26598 10.0643 -0.871816
upperneck -33.4039 8.67698 -15.8505
head -8.19774 4.60875 -5.50183
rclavicle 6.12257e-014 -3.22031e-014
rhumerus 7.18752 23.1787 -100.544
rradius 60.1594
rwrist -13.0002
rhand -27.608 2.71042
rfingers 7.12502
rthumb -1.00731 -27.2669
lclavicle 6.12257e-014 -3.22031e-014
lhumerus 55.363 25.1498 145.761
lradius 9.17394
lwrist -45.571
lhand -6.15013 30.3746
lfingers 7.12502
lthumb 19.688 59.3976
rfemur -109.39 -4.59231 51.5749
rtibia 63.1018
rfoot -19.9005 11.3901
rtoes -33.8674
lfemur -113.967 12.2599 -27.3465
ltibia 66.9767
lfoot -18.4348 9.12776
ltoes 6.73012
